<mxfile host="app.diagrams.net" modified="2024-04-16T08:23:04.974Z" agent="Mozilla/5.0 (Windows NT 10.0; Win64; x64) AppleWebKit/537.36 (KHTML, like Gecko) Chrome/123.0.0.0 Safari/537.36" etag="QpgMrsfikWOh7TCLSE6H" version="24.2.5" type="github">
  <diagram name="第 1 页" id="D2Q8S9ErJoqlyPQzXbie">
    <mxGraphModel dx="1195" dy="621" grid="1" gridSize="10" guides="1" tooltips="1" connect="1" arrows="1" fold="1" page="1" pageScale="1" pageWidth="827" pageHeight="1169" math="0" shadow="0">
      <root>
        <mxCell id="0" />
        <mxCell id="1" parent="0" />
        <mxCell id="AG4z-XhyjTvuDn1aY85K-11" style="edgeStyle=orthogonalEdgeStyle;rounded=0;orthogonalLoop=1;jettySize=auto;html=1;entryX=0;entryY=0.5;entryDx=0;entryDy=0;fillColor=#dae8fc;strokeColor=#6c8ebf;" edge="1" parent="1" target="AG4z-XhyjTvuDn1aY85K-2">
          <mxGeometry relative="1" as="geometry">
            <mxPoint x="50" y="310" as="sourcePoint" />
          </mxGeometry>
        </mxCell>
        <mxCell id="AG4z-XhyjTvuDn1aY85K-12" style="edgeStyle=orthogonalEdgeStyle;rounded=0;orthogonalLoop=1;jettySize=auto;html=1;entryX=0;entryY=0.5;entryDx=0;entryDy=0;fillColor=#dae8fc;strokeColor=#6c8ebf;" edge="1" parent="1" source="AG4z-XhyjTvuDn1aY85K-2" target="AG4z-XhyjTvuDn1aY85K-3">
          <mxGeometry relative="1" as="geometry" />
        </mxCell>
        <mxCell id="AG4z-XhyjTvuDn1aY85K-30" style="edgeStyle=orthogonalEdgeStyle;rounded=0;orthogonalLoop=1;jettySize=auto;html=1;" edge="1" parent="1" source="AG4z-XhyjTvuDn1aY85K-2">
          <mxGeometry relative="1" as="geometry">
            <mxPoint x="130" y="270" as="targetPoint" />
          </mxGeometry>
        </mxCell>
        <mxCell id="AG4z-XhyjTvuDn1aY85K-2" value="LSTM" style="rounded=0;whiteSpace=wrap;html=1;fillColor=#dae8fc;fontSize=15;strokeColor=#6c8ebf;" vertex="1" parent="1">
          <mxGeometry x="90" y="290" width="80" height="40" as="geometry" />
        </mxCell>
        <mxCell id="AG4z-XhyjTvuDn1aY85K-13" style="edgeStyle=orthogonalEdgeStyle;rounded=0;orthogonalLoop=1;jettySize=auto;html=1;entryX=0;entryY=0.5;entryDx=0;entryDy=0;fillColor=#dae8fc;strokeColor=#6c8ebf;" edge="1" parent="1" source="AG4z-XhyjTvuDn1aY85K-3" target="AG4z-XhyjTvuDn1aY85K-4">
          <mxGeometry relative="1" as="geometry" />
        </mxCell>
        <mxCell id="AG4z-XhyjTvuDn1aY85K-29" style="edgeStyle=orthogonalEdgeStyle;rounded=0;orthogonalLoop=1;jettySize=auto;html=1;" edge="1" parent="1" source="AG4z-XhyjTvuDn1aY85K-3">
          <mxGeometry relative="1" as="geometry">
            <mxPoint x="250" y="270" as="targetPoint" />
          </mxGeometry>
        </mxCell>
        <mxCell id="AG4z-XhyjTvuDn1aY85K-3" value="LSTM" style="rounded=0;whiteSpace=wrap;html=1;fillColor=#dae8fc;fontSize=15;strokeColor=#6c8ebf;" vertex="1" parent="1">
          <mxGeometry x="210" y="290" width="80" height="40" as="geometry" />
        </mxCell>
        <mxCell id="AG4z-XhyjTvuDn1aY85K-14" style="edgeStyle=orthogonalEdgeStyle;rounded=0;orthogonalLoop=1;jettySize=auto;html=1;entryX=0;entryY=0.5;entryDx=0;entryDy=0;fillColor=#dae8fc;strokeColor=#6c8ebf;" edge="1" parent="1" source="AG4z-XhyjTvuDn1aY85K-4" target="AG4z-XhyjTvuDn1aY85K-5">
          <mxGeometry relative="1" as="geometry" />
        </mxCell>
        <mxCell id="AG4z-XhyjTvuDn1aY85K-28" style="edgeStyle=orthogonalEdgeStyle;rounded=0;orthogonalLoop=1;jettySize=auto;html=1;" edge="1" parent="1" source="AG4z-XhyjTvuDn1aY85K-4">
          <mxGeometry relative="1" as="geometry">
            <mxPoint x="369.9999999999998" y="270" as="targetPoint" />
          </mxGeometry>
        </mxCell>
        <mxCell id="AG4z-XhyjTvuDn1aY85K-4" value="LSTM" style="rounded=0;whiteSpace=wrap;html=1;fillColor=#dae8fc;fontSize=15;strokeColor=#6c8ebf;" vertex="1" parent="1">
          <mxGeometry x="330" y="290" width="80" height="40" as="geometry" />
        </mxCell>
        <mxCell id="AG4z-XhyjTvuDn1aY85K-25" style="edgeStyle=orthogonalEdgeStyle;rounded=0;orthogonalLoop=1;jettySize=auto;html=1;fillColor=#dae8fc;strokeColor=#6c8ebf;" edge="1" parent="1" source="AG4z-XhyjTvuDn1aY85K-5">
          <mxGeometry relative="1" as="geometry">
            <mxPoint x="570" y="310" as="targetPoint" />
          </mxGeometry>
        </mxCell>
        <mxCell id="AG4z-XhyjTvuDn1aY85K-27" style="edgeStyle=orthogonalEdgeStyle;rounded=0;orthogonalLoop=1;jettySize=auto;html=1;fillColor=#d5e8d4;strokeColor=#82b366;" edge="1" parent="1" source="AG4z-XhyjTvuDn1aY85K-5">
          <mxGeometry relative="1" as="geometry">
            <mxPoint x="489.9999999999998" y="270" as="targetPoint" />
          </mxGeometry>
        </mxCell>
        <mxCell id="AG4z-XhyjTvuDn1aY85K-5" value="LSTM" style="rounded=0;whiteSpace=wrap;html=1;fillColor=#d5e8d4;fontSize=15;strokeColor=#82b366;" vertex="1" parent="1">
          <mxGeometry x="450" y="290" width="80" height="40" as="geometry" />
        </mxCell>
        <mxCell id="AG4z-XhyjTvuDn1aY85K-15" style="edgeStyle=orthogonalEdgeStyle;rounded=0;orthogonalLoop=1;jettySize=auto;html=1;entryX=1;entryY=0.5;entryDx=0;entryDy=0;fillColor=#f8cecc;strokeColor=#b85450;" edge="1" parent="1" source="AG4z-XhyjTvuDn1aY85K-7">
          <mxGeometry relative="1" as="geometry">
            <mxPoint x="50" y="370" as="targetPoint" />
          </mxGeometry>
        </mxCell>
        <mxCell id="AG4z-XhyjTvuDn1aY85K-23" value="" style="edgeStyle=orthogonalEdgeStyle;rounded=0;orthogonalLoop=1;jettySize=auto;html=1;" edge="1" parent="1" source="AG4z-XhyjTvuDn1aY85K-7" target="AG4z-XhyjTvuDn1aY85K-2">
          <mxGeometry relative="1" as="geometry" />
        </mxCell>
        <mxCell id="AG4z-XhyjTvuDn1aY85K-7" value="LSTM" style="rounded=0;whiteSpace=wrap;html=1;fillColor=#f8cecc;fontSize=15;strokeColor=#b85450;" vertex="1" parent="1">
          <mxGeometry x="90" y="350" width="80" height="40" as="geometry" />
        </mxCell>
        <mxCell id="AG4z-XhyjTvuDn1aY85K-16" style="edgeStyle=orthogonalEdgeStyle;rounded=0;orthogonalLoop=1;jettySize=auto;html=1;entryX=1;entryY=0.5;entryDx=0;entryDy=0;fillColor=#f8cecc;strokeColor=#b85450;" edge="1" parent="1" source="AG4z-XhyjTvuDn1aY85K-8" target="AG4z-XhyjTvuDn1aY85K-7">
          <mxGeometry relative="1" as="geometry" />
        </mxCell>
        <mxCell id="AG4z-XhyjTvuDn1aY85K-22" value="" style="edgeStyle=orthogonalEdgeStyle;rounded=0;orthogonalLoop=1;jettySize=auto;html=1;" edge="1" parent="1" source="AG4z-XhyjTvuDn1aY85K-8" target="AG4z-XhyjTvuDn1aY85K-3">
          <mxGeometry relative="1" as="geometry" />
        </mxCell>
        <mxCell id="AG4z-XhyjTvuDn1aY85K-8" value="LSTM" style="rounded=0;whiteSpace=wrap;html=1;fillColor=#f8cecc;fontSize=15;strokeColor=#b85450;" vertex="1" parent="1">
          <mxGeometry x="210" y="350" width="80" height="40" as="geometry" />
        </mxCell>
        <mxCell id="AG4z-XhyjTvuDn1aY85K-17" style="edgeStyle=orthogonalEdgeStyle;rounded=0;orthogonalLoop=1;jettySize=auto;html=1;entryX=1;entryY=0.5;entryDx=0;entryDy=0;fillColor=#f8cecc;strokeColor=#b85450;" edge="1" parent="1" source="AG4z-XhyjTvuDn1aY85K-9" target="AG4z-XhyjTvuDn1aY85K-8">
          <mxGeometry relative="1" as="geometry" />
        </mxCell>
        <mxCell id="AG4z-XhyjTvuDn1aY85K-21" value="" style="edgeStyle=orthogonalEdgeStyle;rounded=0;orthogonalLoop=1;jettySize=auto;html=1;" edge="1" parent="1" source="AG4z-XhyjTvuDn1aY85K-9" target="AG4z-XhyjTvuDn1aY85K-4">
          <mxGeometry relative="1" as="geometry" />
        </mxCell>
        <mxCell id="AG4z-XhyjTvuDn1aY85K-9" value="LSTM" style="rounded=0;whiteSpace=wrap;html=1;fillColor=#f8cecc;fontSize=15;strokeColor=#b85450;" vertex="1" parent="1">
          <mxGeometry x="330" y="350" width="80" height="40" as="geometry" />
        </mxCell>
        <mxCell id="AG4z-XhyjTvuDn1aY85K-18" style="edgeStyle=orthogonalEdgeStyle;rounded=0;orthogonalLoop=1;jettySize=auto;html=1;entryX=1;entryY=0.5;entryDx=0;entryDy=0;fillColor=#f8cecc;strokeColor=#b85450;" edge="1" parent="1" source="AG4z-XhyjTvuDn1aY85K-10" target="AG4z-XhyjTvuDn1aY85K-9">
          <mxGeometry relative="1" as="geometry" />
        </mxCell>
        <mxCell id="AG4z-XhyjTvuDn1aY85K-20" value="" style="edgeStyle=orthogonalEdgeStyle;rounded=0;orthogonalLoop=1;jettySize=auto;html=1;fillColor=#d5e8d4;strokeColor=#82b366;" edge="1" parent="1" source="AG4z-XhyjTvuDn1aY85K-10" target="AG4z-XhyjTvuDn1aY85K-5">
          <mxGeometry relative="1" as="geometry" />
        </mxCell>
        <mxCell id="AG4z-XhyjTvuDn1aY85K-26" style="edgeStyle=orthogonalEdgeStyle;rounded=0;orthogonalLoop=1;jettySize=auto;html=1;fillColor=#f8cecc;strokeColor=#b85450;" edge="1" parent="1" target="AG4z-XhyjTvuDn1aY85K-10">
          <mxGeometry relative="1" as="geometry">
            <mxPoint x="570" y="370" as="sourcePoint" />
          </mxGeometry>
        </mxCell>
        <mxCell id="AG4z-XhyjTvuDn1aY85K-10" value="LSTM" style="rounded=0;whiteSpace=wrap;html=1;fillColor=#d5e8d4;fontSize=15;strokeColor=#82b366;" vertex="1" parent="1">
          <mxGeometry x="450" y="350" width="80" height="40" as="geometry" />
        </mxCell>
        <mxCell id="AG4z-XhyjTvuDn1aY85K-32" value="h&lt;sub style=&quot;font-size: 16px;&quot;&gt;t&lt;/sub&gt;" style="text;html=1;align=center;verticalAlign=middle;resizable=0;points=[];autosize=1;strokeColor=none;fillColor=none;fontSize=16;" vertex="1" parent="1">
          <mxGeometry x="470" y="240" width="40" height="40" as="geometry" />
        </mxCell>
        <mxCell id="AG4z-XhyjTvuDn1aY85K-33" value="h&lt;sub style=&quot;font-size: 16px;&quot;&gt;t-1&lt;/sub&gt;" style="text;html=1;align=center;verticalAlign=middle;resizable=0;points=[];autosize=1;strokeColor=none;fillColor=none;fontSize=16;" vertex="1" parent="1">
          <mxGeometry x="345" y="240" width="50" height="40" as="geometry" />
        </mxCell>
        <mxCell id="AG4z-XhyjTvuDn1aY85K-34" value="h&lt;sub style=&quot;font-size: 16px;&quot;&gt;t-2&lt;/sub&gt;" style="text;html=1;align=center;verticalAlign=middle;resizable=0;points=[];autosize=1;strokeColor=none;fillColor=none;fontSize=16;" vertex="1" parent="1">
          <mxGeometry x="225" y="240" width="50" height="40" as="geometry" />
        </mxCell>
        <mxCell id="AG4z-XhyjTvuDn1aY85K-35" value="h&lt;sub style=&quot;font-size: 16px;&quot;&gt;t-3&lt;/sub&gt;" style="text;html=1;align=center;verticalAlign=middle;resizable=0;points=[];autosize=1;strokeColor=none;fillColor=none;fontSize=16;" vertex="1" parent="1">
          <mxGeometry x="105" y="240" width="50" height="40" as="geometry" />
        </mxCell>
        <mxCell id="AG4z-XhyjTvuDn1aY85K-38" style="edgeStyle=orthogonalEdgeStyle;rounded=0;orthogonalLoop=1;jettySize=auto;html=1;" edge="1" parent="1" source="AG4z-XhyjTvuDn1aY85K-39">
          <mxGeometry relative="1" as="geometry">
            <mxPoint x="610" y="270" as="targetPoint" />
          </mxGeometry>
        </mxCell>
        <mxCell id="AG4z-XhyjTvuDn1aY85K-43" style="edgeStyle=orthogonalEdgeStyle;rounded=0;orthogonalLoop=1;jettySize=auto;html=1;fillColor=#dae8fc;strokeColor=#6c8ebf;" edge="1" parent="1" source="AG4z-XhyjTvuDn1aY85K-39">
          <mxGeometry relative="1" as="geometry">
            <mxPoint x="689.9999999999998" y="310" as="targetPoint" />
          </mxGeometry>
        </mxCell>
        <mxCell id="AG4z-XhyjTvuDn1aY85K-39" value="LSTM" style="rounded=0;whiteSpace=wrap;html=1;fillColor=#dae8fc;fontSize=15;strokeColor=#6c8ebf;" vertex="1" parent="1">
          <mxGeometry x="570" y="290" width="80" height="40" as="geometry" />
        </mxCell>
        <mxCell id="AG4z-XhyjTvuDn1aY85K-40" value="" style="edgeStyle=orthogonalEdgeStyle;rounded=0;orthogonalLoop=1;jettySize=auto;html=1;" edge="1" parent="1" source="AG4z-XhyjTvuDn1aY85K-41" target="AG4z-XhyjTvuDn1aY85K-39">
          <mxGeometry relative="1" as="geometry" />
        </mxCell>
        <mxCell id="AG4z-XhyjTvuDn1aY85K-44" style="edgeStyle=orthogonalEdgeStyle;rounded=0;orthogonalLoop=1;jettySize=auto;html=1;fillColor=#f8cecc;strokeColor=#b85450;" edge="1" parent="1" target="AG4z-XhyjTvuDn1aY85K-41">
          <mxGeometry relative="1" as="geometry">
            <mxPoint x="689.9999999999998" y="370" as="sourcePoint" />
          </mxGeometry>
        </mxCell>
        <mxCell id="AG4z-XhyjTvuDn1aY85K-41" value="LSTM" style="rounded=0;whiteSpace=wrap;html=1;fillColor=#f8cecc;fontSize=15;strokeColor=#b85450;" vertex="1" parent="1">
          <mxGeometry x="570" y="350" width="80" height="40" as="geometry" />
        </mxCell>
        <mxCell id="AG4z-XhyjTvuDn1aY85K-42" value="h&lt;sub&gt;t+1&lt;/sub&gt;" style="text;html=1;align=center;verticalAlign=middle;resizable=0;points=[];autosize=1;strokeColor=none;fillColor=none;fontSize=16;" vertex="1" parent="1">
          <mxGeometry x="585" y="240" width="50" height="40" as="geometry" />
        </mxCell>
      </root>
    </mxGraphModel>
  </diagram>
</mxfile>
